<svg t="1644543014745" class="icon" viewBox="0 0 1024 1024" version="1.1" xmlns="http://www.w3.org/2000/svg" p-id="4470" width="48" height="48"><path d="M127.916217 602.394174l180.770953 0 0-180.780162-180.770953 0L127.916217 602.394174zM127.916217 828.311305l180.770953 0 0-180.781186-180.770953 0L127.916217 828.311305zM127.916217 376.469881l180.770953 0 0-180.780162-180.770953 0L127.916217 376.469881zM353.842557 602.394174l542.255552 0 0-180.780162-542.255552 0L353.842557 602.394174zM353.842557 828.311305l542.255552 0 0-180.781186-542.255552 0L353.842557 828.311305zM353.842557 376.469881l542.255552 0 0-180.780162-542.255552 0L353.842557 376.469881z" p-id="4471" fill="#8a8a8a"></path></svg>